# xmcd
#
# Track frame offsets:
#	150
#	16170
#	33060
#	50265
#	67800
#	82290
#	97893
#	111042
#	124752
#	141027
#	154422
#	167175
#	178068
#	192186
#
# Disc length: 2787 seconds
#
# Revision: 0
# Processed by: cddbd v1.5.1PL0 Copyright (c) Steve Scherf et al.
# Submitted via: EasyCDDAExtractor 8.1.2.3
#
DISCID=b10ae10e
DTITLE=Walmir and Wilmar - De Coração Aberto
DYEAR=1900
DGENRE=
TTITLE0=Esse Amor é um Vulcão
TTITLE1=Quando a Gente Ama
TTITLE2=Jogo de Sedução
TTITLE3=De Coração Aberto
TTITLE4=Se Você Voltar
TTITLE5=Caiu, Quebrou
TTITLE6=Me Procure
TTITLE7=Ela Não Me Quer de Volta
TTITLE8=Coração Deserto
TTITLE9=Querendo Festa
TTITLE10=Mulher, Cachaça e Rodeio
TTITLE11=Só Pra Ver Peão Babar
TTITLE12=Gandaia
TTITLE13=Olhos do Coração
EXTD=
EXTT0=
EXTT1=
EXTT2=
EXTT3=
EXTT4=
EXTT5=
EXTT6=
EXTT7=
EXTT8=
EXTT9=
EXTT10=
EXTT11=
EXTT12=
EXTT13=
PLAYORDER=
